<?xml version="1.0" encoding="utf-8"?>
<!-- Generator: Adobe Illustrator 19.2.1, SVG Export Plug-In . SVG Version: 6.00 Build 0)  -->
<svg version="1.1" id="Ebene_1" xmlns="http://www.w3.org/2000/svg" xmlns:xlink="http://www.w3.org/1999/xlink" x="0px" y="0px"
	 viewBox="0 0 36.7 34.1" style="enable-background:new 0 0 36.7 34.1;" xml:space="preserve">
<style type="text/css">
	.st0{clip-path:url(#SVGID_2_);}
</style>
<g>
	<defs>
		<rect id="SVGID_1_" y="0" width="36.7" height="34.1"/>
	</defs>
	<clipPath id="SVGID_2_">
		<use xlink:href="#SVGID_1_"  style="overflow:visible;"/>
	</clipPath>
	<path class="st0" d="M16.2,0l-0.7,0l-0.8,0l-0.3,0.1v0C6.9,0.9,0.7,7.5,0.1,15.6H0l0,2.7l0,0.3h0C0.8,27.1,7.7,34,15.9,34.1l16.2,0
		V17.1C32.1,7.8,25,0.2,16.2,0 M16.4,29.4c-6.1,0-11.3-4.9-11.9-11.1c-0.3-3.5,0.7-6.9,2.9-9.5c2.2-2.6,5.3-4.1,8.6-4.1
		c6.4,0.1,11.6,5.6,11.6,12.4v12.4c-2.5,0-5.3,0-5.5,0H16.4z"/>
</g>
<polygon points="18.2,18.9 11.6,12 8.2,15.6 18.2,26 36.7,6.7 33.3,3.1 "/>
</svg>
